<?xml version="1.0" encoding="UTF-8" standalone="no"?>
<!-- Generator: Adobe Illustrator 21.1.0, SVG Export Plug-In . SVG Version: 6.00 Build 0)  -->

<svg
   version="1.1"
   id="Layer_1"
   x="0px"
   y="0px"
   viewBox="0 0 177.00001 50"
   xml:space="preserve"
   sodipodi:docname="logo.svg"
   width="177"
   height="50"
   inkscape:version="1.2.2 (b0a8486541, 2022-12-01)"
   xmlns:inkscape="http://www.inkscape.org/namespaces/inkscape"
   xmlns:sodipodi="http://sodipodi.sourceforge.net/DTD/sodipodi-0.dtd"
   xmlns:xlink="http://www.w3.org/1999/xlink"
   xmlns="http://www.w3.org/2000/svg"
   xmlns:svg="http://www.w3.org/2000/svg"><defs
   id="defs28440"><clipPath
     clipPathUnits="userSpaceOnUse"
     id="clipPath26-2-6-4"><path
       d="M 0,525 H 1239 V 0 H 0 Z"
       id="path24-0-1-7" /></clipPath><linearGradient
     inkscape:collect="always"
     xlink:href="#linearGradient12347"
     id="linearGradient18497"
     gradientUnits="userSpaceOnUse"
     x1="2884.6174"
     y1="133.99507"
     x2="3151.0986"
     y2="399.21289"
     spreadMethod="pad"
     gradientTransform="translate(-2779.0945,-3.4806585)" /><linearGradient
     inkscape:collect="always"
     id="linearGradient12347"><stop
       style="stop-color:#c240e7;stop-opacity:1;"
       offset="0"
       id="stop12345" /><stop
       style="stop-color:#ed307c;stop-opacity:1;"
       offset="1"
       id="stop12343" /></linearGradient></defs><sodipodi:namedview
   id="namedview28438"
   pagecolor="#ffffff"
   bordercolor="#000000"
   borderopacity="0.25"
   inkscape:showpageshadow="2"
   inkscape:pageopacity="0.0"
   inkscape:pagecheckerboard="0"
   inkscape:deskcolor="#d1d1d1"
   showgrid="false"
   showguides="true"
   inkscape:zoom="0.95887511"
   inkscape:cx="155.39041"
   inkscape:cy="83.431095"
   inkscape:window-width="1920"
   inkscape:window-height="1043"
   inkscape:window-x="0"
   inkscape:window-y="0"
   inkscape:window-maximized="1"
   inkscape:current-layer="Layer_1" />
<style
   type="text/css"
   id="style28393">
	.st0{fill:#ED307C;}
	.st1{fill:#FFFFFF;}
</style>

<g
   id="g16-7"
   transform="matrix(1.3333333,0,0,-1.3333333,261.4669,670.44385)"
   style="display:inline"><path
     d="M 0,0 H -0.014 0.014 Z"
     style="fill:#ed307c;fill-opacity:1;fill-rule:nonzero;stroke:none"
     id="path18-5" /></g><g
   id="g20-9"
   style="display:inline"
   transform="matrix(1.2885519,0,0,-1.2885519,-567.32359,517.06299)"><g
     id="g29477"
     transform="matrix(0.13634292,0,0,0.13634292,426.02676,346.14837)"><g
       id="g22-2"
       clip-path="url(#clipPath26-2-6-4)"
       transform="translate(0,0.45249655)"
       style="fill:#ffffff;fill-opacity:1"><g
         id="g18644"
         style="fill:#ffffff;fill-opacity:1"><g
           id="g56-8"
           transform="translate(520.4092,238.9746)"
           style="fill:#ffffff;fill-opacity:1"><path
             d="m 0,0 v -0.464 c 0,-21.616 -13.933,-37.305 -33.13,-37.305 -19.287,0 -33.832,16.039 -33.832,37.305 V 0 c 0,21.266 14.545,37.305 33.832,37.305 C -14.243,37.305 0,21.266 0,0 m -26.413,65.349 c -16.064,0 -29.128,-6.323 -39.851,-19.312 v 48.97 c 0,8.838 -7.026,15.761 -15.994,15.761 -8.985,0 -15.76,-6.775 -15.76,-15.761 V -48.665 c 0,-8.691 7.069,-15.759 15.76,-15.759 8.82,0 15.994,7.068 15.994,15.759 v 1.031 c 10.733,-12.227 23.796,-18.179 39.851,-18.179 29.136,0 58.631,22.446 58.631,65.349 V 0 c 0,42.903 -29.495,65.349 -58.631,65.349"
             style="fill:#ffffff;fill-opacity:1;fill-rule:nonzero;stroke:none"
             id="path58-4" /></g><g
           id="g60-5"
           transform="translate(574.6787,349.7427)"
           style="fill:#ffffff;fill-opacity:1"><path
             d="m 0,0 c -8.837,0 -15.761,-6.923 -15.761,-15.761 v -143.672 c 0,-8.838 6.924,-15.759 15.761,-15.759 8.969,0 15.993,6.921 15.993,15.759 V -15.761 C 15.993,-7.07 8.819,0 0,0"
             style="fill:#ffffff;fill-opacity:1;fill-rule:nonzero;stroke:none"
             id="path62-0" /></g><g
           id="g64-3"
           transform="translate(701.3213,303.1626)"
           style="fill:#ffffff;fill-opacity:1"><path
             d="m 0,0 c -8.967,0 -15.99,-7.024 -15.99,-15.992 v -56.306 c 0,-17.173 -10.095,-28.269 -25.72,-28.269 -15.688,0 -24.33,9.875 -24.33,27.804 v 56.771 C -66.04,-7.024 -73.064,0 -82.031,0 c -8.691,0 -15.76,-7.173 -15.76,-15.992 v -65.112 c 0,-30.161 17.404,-48.897 45.422,-48.897 14.77,0 26.699,5.823 36.379,17.781 v -0.633 c 0,-8.691 7.173,-15.759 15.99,-15.759 8.818,0 15.991,7.068 15.991,15.759 v 96.861 C 15.991,-7.173 8.818,0 0,0"
             style="fill:#ffffff;fill-opacity:1;fill-rule:nonzero;stroke:none"
             id="path66-6" /></g><g
           id="g68-1"
           transform="translate(790.8848,303.396)"
           style="fill:#ffffff;fill-opacity:1"><path
             d="m 0,0 c -10.426,0 -21.489,-8.075 -28.959,-20.878 v 4.653 c 0,8.967 -7.024,15.992 -15.993,15.992 -8.838,0 -15.761,-7.025 -15.761,-15.992 v -96.861 c 0,-8.838 6.923,-15.76 15.761,-15.76 8.818,0 15.993,7.069 15.993,15.76 v 36.151 c 0,25.996 11.388,42.299 32.078,45.909 7.68,1.422 12.642,7.415 12.642,15.265 C 15.761,-6.186 9.575,0 0,0"
             style="fill:#ffffff;fill-opacity:1;fill-rule:nonzero;stroke:none"
             id="path70-0" /></g><g
           id="g72-6"
           transform="translate(896.6729,322.3911)"
           style="fill:#ffffff;fill-opacity:1"><path
             d="m 0,0 c 2.216,0 4.865,-0.349 5.738,-0.464 3.603,-0.103 7.013,1.214 9.596,3.707 2.628,2.534 4.136,6.082 4.136,9.736 0,6.775 -4.861,12.546 -11.267,13.417 -4.528,0.797 -9.256,1.185 -14.456,1.185 -12.522,0 -21.973,-3.36 -28.89,-10.275 -6.971,-6.973 -10.505,-17.55 -10.505,-31.438 v -7.179 h -3.012 c -7.54,0 -13.673,-6.134 -13.673,-13.675 0,-7.414 6.133,-13.446 13.673,-13.446 h 3.012 v -83.65 c 0,-8.69 7.07,-15.759 15.76,-15.759 8.82,0 15.992,7.069 15.992,15.759 v 83.65 H 5.563 c 7.541,0 13.677,6.032 13.677,13.446 0,7.538 -6.008,13.444 -13.677,13.444 H -14.36 v 4.861 C -14.36,-5.146 -9.931,0 0,0"
             style="fill:#ffffff;fill-opacity:1;fill-rule:nonzero;stroke:none"
             id="path74-3" /></g><g
           id="g76-2"
           transform="translate(1067.2988,304.3306)"
           style="fill:#ffffff;fill-opacity:1"><path
             d="M 0,0 C -16.612,0 -30.027,-6.553 -40.967,-20.024 -48.513,-7.095 -61.554,0 -77.862,0 c -18.101,0 -28.783,-9.384 -35.45,-17.481 v 0.33 c 0,8.967 -7.024,15.992 -15.993,15.992 -8.838,0 -15.76,-7.025 -15.76,-15.992 v -96.861 c 0,-8.838 6.922,-15.761 15.76,-15.761 8.969,0 15.993,6.923 15.993,15.761 v 56.311 c 0,17.311 9.55,28.498 24.329,28.498 14.575,0 22.935,-10.135 22.935,-27.805 v -57.004 c 0,-8.838 7.025,-15.761 15.992,-15.761 8.838,0 15.761,6.923 15.761,15.761 v 56.311 c 0,17.578 9.323,28.498 24.328,28.498 14.793,0 22.941,-9.957 22.941,-28.037 v -56.772 c 0,-8.838 7.022,-15.761 15.988,-15.761 8.987,0 15.764,6.774 15.764,15.761 v 65.345 C 44.726,-18.192 28.006,0 0,0"
             style="fill:#ffffff;fill-opacity:1;fill-rule:nonzero;stroke:none"
             id="path78-0" /></g></g></g><path
       id="path2717-3"
       style="display:inline;fill:url(#linearGradient18497);fill-opacity:1;stroke-width:0.940425;stroke-linejoin:round;stop-color:#000000"
       d="m 239.53943,397.01935 a 135,135 0 0 1 -100.5356,-45.58036 h 124.5193 c 6.736,0 12.1592,-5.42323 12.1592,-12.15912 v -0.65982 c 0,-6.73588 -5.4232,-12.15904 -12.1592,-12.15904 h -142.0842 a 135,135 0 0 1 -11.1614,-26.3091 h 129.2794 c 6.9189,0 12.489,-5.57025 12.489,-12.48899 0,-6.91889 -5.5701,-12.48899 -12.489,-12.48899 h -134.2218 a 135,135 0 0 1 -0.7957,-13.15458 135,135 0 0 1 0.841,-13.15459 h 161.0293 c 6.7358,0 12.159,-5.42197 12.159,-12.15794 v -0.66092 c 0,-6.73588 -5.4232,-12.15912 -12.159,-12.15912 h -156.0764 a 135,135 0 0 1 10.6979,-26.30791 h 114.106 c 6.9189,0 12.489,-5.57009 12.489,-12.48899 0,-6.9189 -5.5701,-12.48899 -12.489,-12.48899 h -96.7269 a 135,135 0 0 1 101.1291,-45.58155 135,135 0 0 1 135.0001,135.00001 135,135 0 0 1 -135.0001,135 z" /></g></g></svg>
