<?xml version="1.0" encoding="UTF-8" standalone="no"?>
<svg
   width="27"
   height="24"
   viewBox="0 0 27 24"
   fill="none"
   version="1.1"
   id="svg34602"
   sodipodi:docname="volume-muted.svg"
   inkscape:version="1.2.2 (b0a8486541, 2022-12-01)"
   xmlns:inkscape="http://www.inkscape.org/namespaces/inkscape"
   xmlns:sodipodi="http://sodipodi.sourceforge.net/DTD/sodipodi-0.dtd"
   xmlns="http://www.w3.org/2000/svg"
   xmlns:svg="http://www.w3.org/2000/svg">
  <defs
     id="defs34606" />
  <sodipodi:namedview
     id="namedview34604"
     pagecolor="#ffffff"
     bordercolor="#000000"
     borderopacity="0.25"
     inkscape:showpageshadow="2"
     inkscape:pageopacity="0.0"
     inkscape:pagecheckerboard="0"
     inkscape:deskcolor="#d1d1d1"
     showgrid="false"
     inkscape:zoom="18.041667"
     inkscape:cx="13.247113"
     inkscape:cy="7.9260969"
     inkscape:window-width="1920"
     inkscape:window-height="1011"
     inkscape:window-x="1920"
     inkscape:window-y="32"
     inkscape:window-maximized="1"
     inkscape:current-layer="svg34602" />
  <g
     aria-label=""
     id="text1355"
     style="font-weight:300;font-size:21.3333px;font-family:'Font Awesome 6 Pro';-inkscape-font-specification:'Font Awesome 6 Pro Light';fill:#ffffff;stroke-width:1.33417;stroke-linejoin:round">
    <path
       d="M 12.541647,2.7777931 C 12.041648,2.5694601 11.499982,2.6527933 11.083316,3.0277927 L 5.4583247,7.9861182 H 1.9999968 C 0.87499862,7.9861182 0,8.9027834 0,9.986115 v 3.958327 c 0,1.083332 0.87499862,1.95833 1.9999968,1.95833 h 3.4583279 l 5.6249913,4.999992 c 0.249999,0.208333 0.583332,0.333333 0.916665,0.333333 0.166666,0 0.333333,-0.04167 0.541666,-0.125 0.458332,-0.208333 0.749999,-0.708332 0.749999,-1.208331 V 3.9861245 c 0,-0.4999992 -0.291667,-0.9999984 -0.749999,-1.2083314 z m 8.833319,9.2083189 1.95833,-1.95833 c 0.416666,-0.4166664 0.416666,-1.0416654 0,-1.4166648 -0.374999,-0.416666 -0.999998,-0.416666 -1.416664,0 L 19.999968,10.611114 17.999972,8.6111172 c -0.416666,-0.3749994 -1.041665,-0.3749994 -1.416665,0 -0.416666,0.416666 -0.416666,1.041665 0,1.4166648 l 1.95833,1.95833 -1.95833,1.95833 c -0.416666,0.416666 -0.416666,1.041665 0,1.416665 0.375,0.416666 0.999999,0.416666 1.416665,0 l 1.999996,-1.958331 1.958331,1.958331 c 0.374999,0.416666 0.999998,0.416666 1.374997,0 0.416666,-0.375 0.416666,-0.999999 0,-1.416665 z"
       style="-inkscape-font-specification:'Font Awesome 6 Pro Heavy';fill:#ffffff"
       id="path3177" />
  </g>
</svg>
