<?xml version="1.0" encoding="UTF-8" standalone="no"?>
<svg
   width="27"
   height="24"
   viewBox="0 0 27 24"
   fill="none"
   version="1.1"
   id="svg34602"
   sodipodi:docname="volume-high.svg"
   inkscape:version="1.2.2 (b0a8486541, 2022-12-01)"
   xmlns:inkscape="http://www.inkscape.org/namespaces/inkscape"
   xmlns:sodipodi="http://sodipodi.sourceforge.net/DTD/sodipodi-0.dtd"
   xmlns="http://www.w3.org/2000/svg"
   xmlns:svg="http://www.w3.org/2000/svg">
  <defs
     id="defs34606" />
  <sodipodi:namedview
     id="namedview34604"
     pagecolor="#ffffff"
     bordercolor="#000000"
     borderopacity="0.25"
     inkscape:showpageshadow="2"
     inkscape:pageopacity="0.0"
     inkscape:pagecheckerboard="0"
     inkscape:deskcolor="#d1d1d1"
     showgrid="false"
     inkscape:zoom="18.041667"
     inkscape:cx="10.309469"
     inkscape:cy="7.9260969"
     inkscape:window-width="1920"
     inkscape:window-height="1011"
     inkscape:window-x="1920"
     inkscape:window-y="32"
     inkscape:window-maximized="1"
     inkscape:current-layer="svg34602" />
  <g
     aria-label=""
     id="text1355"
     style="font-weight:300;font-size:21.3333px;font-family:'Font Awesome 6 Pro';-inkscape-font-specification:'Font Awesome 6 Pro Light';fill:#ffffff;stroke-width:1.33417;stroke-linejoin:round"
     transform="translate(-0.16668773)">
    <path
       d="m 17.333327,8.9027834 c -0.416666,-0.3333328 -1.041665,-0.2499996 -1.416664,0.1666664 -0.333333,0.416666 -0.291666,1.0416652 0.166666,1.4166642 0.458333,0.375 0.749999,0.916665 0.749999,1.499998 0,0.583332 -0.291666,1.124998 -0.749999,1.499998 -0.458332,0.374999 -0.499999,0.999998 -0.166666,1.416664 0.208333,0.25 0.499999,0.374999 0.791665,0.374999 0.208333,0 0.458333,-0.08333 0.624999,-0.208333 0.958332,-0.749998 1.499998,-1.874997 1.499998,-3.083328 0,-1.249998 -0.541666,-2.2916632 -1.499998,-3.0833286 z M 19.87499,5.8611216 c -0.458333,-0.3749995 -1.083332,-0.2916663 -1.416664,0.1249998 -0.375,0.416666 -0.291667,1.041665 0.124999,1.4166644 1.416665,1.1249982 2.249997,2.8333292 2.249997,4.5833262 0,1.708331 -0.833332,3.416661 -2.249997,4.583326 -0.416666,0.374999 -0.499999,0.999998 -0.124999,1.416664 0.208333,0.25 0.458332,0.375 0.749998,0.375 0.25,0 0.458333,-0.08333 0.666666,-0.25 1.874997,-1.499997 2.958329,-3.749994 2.958329,-6.12499 0,-2.416663 -1.083332,-4.6249928 -2.958329,-6.1249904 z m 2.541663,-3.1249951 c -0.416666,-0.3333328 -1.041665,-0.2916662 -1.416665,0.1249998 -0.333333,0.416666 -0.291666,1.0833316 0.125,1.4166644 2.33333,1.9166637 3.708327,4.7083259 3.708327,7.7083213 0,2.958329 -1.374997,5.791657 -3.708327,7.708321 -0.416666,0.333333 -0.458333,0.999998 -0.125,1.416664 0.208333,0.25 0.499999,0.375 0.791666,0.375 0.208333,0 0.416666,-0.04167 0.624999,-0.208333 2.791662,-2.291663 4.416659,-5.666658 4.416659,-9.291652 0,-3.666661 -1.624997,-6.9583225 -4.416659,-9.2499855 z m -9.708318,0.041667 c -0.5,-0.208333 -1.041665,-0.1249998 -1.458331,0.2499996 L 5.6250124,8.0277848 H 2.1666846 c -1.1249983,0 -1.99999687,0.8749986 -1.99999687,1.9999972 v 3.958327 c 0,1.124998 0.87499857,1.999997 1.99999687,1.999997 h 3.4583278 l 5.6249916,4.999992 c 0.249999,0.208333 0.583332,0.333332 0.916665,0.333332 0.166666,0 0.333333,-0.04167 0.541666,-0.124999 C 13.166667,20.986098 13.5,20.527765 13.5,19.986099 V 4.0277911 c 0,-0.5416658 -0.333333,-0.9999984 -0.791665,-1.2499976 z"
       style="-inkscape-font-specification:'Font Awesome 6 Pro Heavy';fill:#ffffff"
       id="path1815" />
  </g>
</svg>
