<?xml version="1.0" encoding="UTF-8" standalone="no"?>
<svg
   width="27"
   height="24"
   viewBox="0 0 27 24"
   fill="none"
   version="1.1"
   id="svg34602"
   sodipodi:docname="volume-low.svg"
   inkscape:version="1.2.2 (b0a8486541, 2022-12-01)"
   xmlns:inkscape="http://www.inkscape.org/namespaces/inkscape"
   xmlns:sodipodi="http://sodipodi.sourceforge.net/DTD/sodipodi-0.dtd"
   xmlns="http://www.w3.org/2000/svg"
   xmlns:svg="http://www.w3.org/2000/svg">
  <defs
     id="defs34606" />
  <sodipodi:namedview
     id="namedview34604"
     pagecolor="#ffffff"
     bordercolor="#000000"
     borderopacity="0.25"
     inkscape:showpageshadow="2"
     inkscape:pageopacity="0.0"
     inkscape:pagecheckerboard="0"
     inkscape:deskcolor="#d1d1d1"
     showgrid="false"
     inkscape:zoom="18.041667"
     inkscape:cx="13.247113"
     inkscape:cy="7.9260969"
     inkscape:window-width="1920"
     inkscape:window-height="1011"
     inkscape:window-x="1920"
     inkscape:window-y="32"
     inkscape:window-maximized="1"
     inkscape:current-layer="svg34602" />
  <g
     aria-label=""
     id="text1355"
     style="font-weight:300;font-size:21.3333px;font-family:'Font Awesome 6 Pro';-inkscape-font-specification:'Font Awesome 6 Pro Light';fill:#ffffff;stroke-width:1.33417;stroke-linejoin:round">
    <path
       d="m 17.16664,8.9027834 c -0.416666,-0.3333328 -1.041665,-0.2499996 -1.416665,0.1666664 -0.333333,0.416666 -0.291666,1.0416652 0.166667,1.4166642 0.458332,0.375 0.749998,0.916665 0.749998,1.499998 0,0.624999 -0.291666,1.166665 -0.749998,1.541664 -0.458333,0.375 -0.5,0.999999 -0.166667,1.416665 0.208333,0.249999 0.499999,0.374999 0.791666,0.374999 0.208333,0 0.458332,-0.08333 0.624999,-0.208333 0.958331,-0.791665 1.499997,-1.916664 1.499997,-3.124995 0,-1.166665 -0.541666,-2.2916632 -1.499997,-3.0833286 z M 12.541647,2.7777931 C 12.041648,2.5694601 11.499982,2.6527933 11.083316,3.0277927 L 5.4583247,7.9861182 H 1.9999968 C 0.87499862,7.9861182 0,8.9027834 0,9.986115 v 3.958327 c 0,1.083332 0.87499862,1.95833 1.9999968,1.95833 h 3.4583279 l 5.6249913,4.999992 c 0.249999,0.333333 0.583332,0.416666 0.916665,0.416666 0.166666,0 0.333333,0 0.541666,-0.08333 0.458332,-0.249999 0.791665,-0.708332 0.791665,-1.249998 V 3.9861245 c 0,-0.4999992 -0.333333,-0.9999984 -0.791665,-1.2083314 z"
       style="-inkscape-font-specification:'Font Awesome 6 Pro Heavy'"
       id="path3035" />
  </g>
</svg>
